# xmcd CD database file
#
# Track frame offsets:
#	150
#	11410
#	25535
#	39467
#	53982
#	64697
#	79655
#	89815
#	104165
#	121465
#	140910
#	158290
#	177052
#	213040
#	231925
#	242822
#
# Disc length: 3420 seconds
#
# Revision: 0
# Processed by: cddbd v1.4PL0 Copyright (c) Steve Scherf et al.
# Submitted via: CDex 1.51
#
DISCID=d10d5a10
DTITLE=Ella Fitzgerald - Giants Of Jazz 7
DYEAR=1957
DGENRE=Jazz
TTITLE0=That Old Black Magic
TTITLE1=Lady Be Good
TTITLE2=I Can't Get Started
TTITLE3=How High The Moon
TTITLE4=You Got Me Singing Te Blues
TTITLE5=Angels Eyes
TTITLE6=Lullaby Of Birdland
TTITLE7=Tenderly
TTITLE8=Do Nothing Till You Hear From Me
TTITLE9=April In Paris
TTITLE10=I Can't Give You Anything But Love
TTITLE11=Love For Sale
TTITLE12=It Don't Mean A Thing
TTITLE13=Body And Soul
TTITLE14=Goody Goody
TTITLE15=Smooth Salling
EXTD=YEAR: 1957
EXTT0=
EXTT1=
EXTT2=
EXTT3=
EXTT4=
EXTT5=
EXTT6=
EXTT7=
EXTT8=
EXTT9=
EXTT10=
EXTT11=
EXTT12=
EXTT13=
EXTT14=
EXTT15=
PLAYORDER=
